<svg width="182" height="54" viewBox="0 0 182 54" fill="none" xmlns="http://www.w3.org/2000/svg">
<g filter="url(#filter0_d_38_24)">
<path d="M54.8674 21.5174L55.5364 19.3769L53.3231 19.4462C53.1362 19.4462 51.777 19.4077 50.4584 18.452C50.5567 18.4617 50.6549 18.4751 50.7552 18.4751C52.1124 18.4751 53.4253 17.6582 53.9517 16.4906L54.9041 14.3809C53.7107 14.3964 52.6194 14.2461 52.6194 14.2461C52.6098 14.2441 51.7499 14.1344 50.7552 13.1189C50.0417 12.3907 49.1589 12.0052 48.2026 12.0052C47.7843 12.0052 47.4102 12.0804 47.0883 12.1825C47.1384 12.0111 47.1866 11.8376 47.2138 11.6584C47.5182 9.68358 46.2459 8.17687 46.2459 8.1789L44.5822 6.11927L43.5507 8.53913C43.5468 8.54687 43.2865 9.11339 42.82 9.39075C42.6792 8.67979 42.3342 7.88025 41.5959 7.11532C40.2039 5.67413 38.5093 5.46025 37.6224 5.46025C37.2117 5.46025 36.9188 5.5046 36.8473 5.51613L34.8386 5.9112C34.9542 5.46228 35.201 4.68188 35.6521 3.97865L36.7607 2.25237L33.971 2.57028L33.0822 0.683973L31.3626 1.5703L29.7721 0L28.1853 1.5703L26.46 0.683973L25.573 2.57028L22.7854 2.25237L23.8958 3.97865C24.3469 4.68188 24.5938 5.46025 24.7075 5.90918L22.791 5.53159L22.7256 5.52006C22.6292 5.5046 22.3382 5.46025 21.9255 5.46025C21.0386 5.46025 19.3441 5.67604 17.9559 7.11532C17.2156 7.87835 16.8706 8.67979 16.7279 9.39075C16.2653 9.11718 16.0069 8.5584 16.0069 8.5584L14.9736 6.12496L13.2829 8.19817C13.0765 8.4659 12.0567 9.88214 12.3343 11.6623C12.3632 11.8396 12.4095 12.013 12.4596 12.1845C12.1396 12.0824 11.7655 12.0072 11.3473 12.0072C10.391 12.0072 9.50806 12.3926 8.7928 13.1209C7.80176 14.1324 6.94578 14.2461 6.95359 14.2461C6.95359 14.2461 6.04936 14.4079 4.64973 14.3828L5.59631 16.4926C6.12269 17.6622 7.4374 18.4771 8.7928 18.4771C8.89498 18.4771 8.99325 18.4635 9.09354 18.454C7.77871 19.4096 6.41953 19.4481 6.2556 19.45L4 19.3769L4.68249 21.5154C5.02568 22.6176 6.17271 24.4441 8.37061 24.6406C8.13148 25.6425 7.60131 26.7639 6.43691 27.2474L4.75771 27.9391L5.6734 29.5325C6.1901 30.3918 7.40275 31.3975 9.13007 31.3975C9.50415 31.3956 9.8646 31.359 10.2117 31.2858C10.3004 31.6789 10.4122 32.072 10.5433 32.461C11.058 33.9908 10.6146 35.0582 10.6088 35.0698L9.77981 36.8057L11.6306 37.2933C11.6538 37.3009 12.2128 37.4531 12.9127 37.4531C13.2308 37.4531 13.5334 37.4204 13.8188 37.3531C14.0346 37.3028 14.241 37.2355 14.4395 37.1545C14.6786 37.5841 14.9697 37.9753 15.309 38.3259C16.4947 39.5417 18.1739 40.1582 20.3023 40.1582H20.31L21.8292 40.1389L18.6905 41.4414L21.0734 42.5917C21.939 43.0136 22.9666 43.5126 24.0115 43.8941L23.7146 44.7072L24.5359 45.081C24.6091 45.1136 26.1881 45.8208 28.8139 45.9711C28.8139 45.9711 29.4482 46 29.797 46C30.146 46 30.7726 45.9692 30.7726 45.9692C33.3811 45.815 34.9484 45.1157 35.0217 45.081L35.8449 44.7053L35.5441 43.8903C36.6199 43.4972 37.684 42.9789 38.5131 42.5743L40.8516 41.4395L37.7225 40.1352L39.2476 40.1545C41.378 40.1545 43.0591 39.5379 44.2427 38.3202C44.5801 37.9715 44.8714 37.5804 45.1123 37.1507C45.3109 37.2316 45.519 37.299 45.735 37.3491C46.0183 37.4165 46.3211 37.4494 46.6392 37.4494C47.3273 37.4494 47.8924 37.2972 47.9077 37.2933L49.7662 36.802L48.9564 35.0988C48.9371 35.0544 48.4938 33.9889 49.0085 32.4572C49.1395 32.0661 49.2495 31.6731 49.3382 31.2819C49.6872 31.3551 50.0515 31.3937 50.4275 31.3937C52.6271 31.3937 53.6817 29.8465 53.8861 29.5113L54.7922 27.9353L53.1129 27.2455C51.9467 26.7618 51.4184 25.6386 51.1812 24.6387C53.3481 24.4537 54.5126 22.6272 54.8674 21.5174ZM24.8539 6.64712L24.831 6.65295L24.8502 6.62787L24.8539 6.64712Z" fill="white"/>
<path d="M29.7743 6.55298C27.9967 6.55488 26.6646 7.13673 26.3734 7.8207L29.7743 9.16178L33.175 7.8207C32.8858 7.13673 31.5536 6.55488 29.7743 6.55298Z" fill="white"/>
<path d="M29.8086 42.0515H29.8046H29.7757H29.7429H29.741C28.6632 42.0592 27.1807 41.8376 26.4655 41.6295L25.6056 43.955C26.1724 44.1574 28.0926 44.5427 29.7757 44.5427C31.4549 44.5427 33.377 44.1555 33.9418 43.955L33.0839 41.6295C32.3668 41.8395 30.8861 42.0592 29.8086 42.0515Z" fill="white"/>
<path d="M36.3158 39.739C35.6758 40.1013 34.2472 40.6445 33.4163 40.897L34.1142 42.8179C35.4 42.4671 36.4603 42.0568 37.3377 41.6175L35.8896 41.1358L36.3158 39.739Z" fill="white"/>
<path d="M23.2343 39.739L23.6623 41.1358L22.2125 41.6175C23.0878 42.0568 24.1539 42.4671 25.434 42.8179L26.1319 40.897C25.3048 40.6445 23.8743 40.0993 23.2343 39.739Z" fill="white"/>
<path d="M29.7744 4.32934C31.1143 4.32934 32.4291 4.64915 33.4393 5.21187C33.5319 4.90156 33.661 4.52586 33.8365 4.13281L33.4548 4.17906L33.0538 4.22151L32.8841 3.85735L32.3732 2.77843L31.442 3.26384L31.0796 3.44884L30.7904 3.16375L29.7783 2.16187L28.7681 3.16375L28.4789 3.44884L28.1165 3.26384L27.1795 2.77843L26.6744 3.85735L26.5009 4.22151L26.0999 4.17906L25.7181 4.13281C25.8937 4.52776 26.0208 4.90156 26.1153 5.21187C27.1274 4.64915 28.4384 4.32934 29.7744 4.32934Z" fill="white"/>
<path d="M50.2309 16.7995C50.4045 16.8592 50.5817 16.8861 50.7573 16.8861C51.5148 16.8861 52.2475 16.3968 52.5 15.8361C52.5 15.8361 51.1101 15.7513 49.6159 14.235C49.1398 13.7436 48.6366 13.5973 48.2047 13.5973C47.5338 13.5973 47.0305 13.9518 47.0305 13.9518C48.8351 14.9113 49.2032 16.4526 50.2309 16.7995Z" fill="white"/>
<path d="M8.7916 16.8861C8.96697 16.8861 9.14437 16.8592 9.31407 16.7995C10.3454 16.4526 10.7156 14.9113 12.5202 13.9518C12.5202 13.9518 12.0149 13.5973 11.3479 13.5973C10.9142 13.5973 10.411 13.7436 9.93282 14.235C8.44072 15.7513 7.05066 15.8361 7.05066 15.8361C7.29936 16.3968 8.03389 16.8861 8.7916 16.8861Z" fill="white"/>
<path d="M50.7212 23.0626C50.7521 23.0645 50.7791 23.0645 50.8119 23.0645C52.7031 23.0645 53.3452 21.0394 53.3452 21.0394H53.3085C52.9615 21.0394 50.1487 20.9586 48.1611 18.4326C46.852 16.7719 45.78 15.3114 43.6612 14.7372L43.4531 14.7006L43.4068 14.4887C43.349 14.165 43.5707 13.8625 44.074 13.535C46.9966 11.6219 45.0127 9.18261 45.0127 9.18261C45.0127 9.18261 44.178 11.1344 42.3099 11.1344C42.2655 11.1344 42.2173 11.1323 42.1711 11.1323C41.9591 11.1208 41.7547 11.1131 41.5483 11.0689L41.2033 11.0013C41.2033 11.0013 41.7354 9.5545 40.4514 8.22507C39.4835 7.2213 38.3057 7.05176 37.6251 7.05176C37.2819 7.05176 37.064 7.09598 37.064 7.09598C37.7099 7.93986 38.1764 9.33872 37.4304 10.2018C36.7865 10.9435 35.2133 10.9802 35.2133 12.0861C35.2133 12.5543 35.6509 13.1015 36.4375 13.5928C38.803 15.0821 41.1512 17.0569 42.1267 19.7043C43.3471 23.0067 41.9725 25.1974 40.0099 26.4536C40.0099 26.4536 40.6249 27.02 41.5176 27.0913C41.6988 27.1086 41.8761 27.1163 42.042 27.1163C43.9255 27.1163 44.899 26.2339 44.899 26.2339C44.899 26.2339 44.739 27.4534 43.7577 28.5864C42.8536 29.6326 41.666 30.2473 39.8556 30.2742C39.8556 30.2742 39.7978 31.1142 40.5998 31.8406C41.1126 32.2991 42.2983 32.4494 42.2983 32.4494C42.2983 32.4494 40.0792 32.8983 39.8345 36.1738C39.7013 37.9481 39.2483 38.5647 39.2483 38.5647H39.289C44.4382 38.5647 44.3052 34.1507 44.3052 34.1507C44.3052 34.1507 44.6638 35.4569 46.1001 35.798C46.2735 35.8443 46.4586 35.8617 46.636 35.8617C47.0988 35.8617 47.4997 35.7537 47.4997 35.7537C47.4997 35.7537 46.7478 34.1681 47.4939 31.9504C48.1128 30.1104 48.0126 28.7463 48.0126 28.7463C48.0126 28.7463 48.7066 29.7944 50.4264 29.8041H50.4436C51.8761 29.8041 52.5006 28.7194 52.5006 28.7194C49.0671 27.2955 49.4065 22.6985 49.4065 22.6985C49.4065 22.6985 49.8518 23.0298 50.7212 23.0626ZM49.6879 27.8638C48.292 27.1761 47.4091 25.3496 47.1952 24.6906C46.9637 28.3128 45.194 30.8271 43.1253 33.247C42.0515 34.5013 41.6776 35.7209 41.6776 35.7209C41.6776 35.7209 41.8838 34.3395 42.8129 33.2144C44.7429 30.8964 46.5763 28.0122 46.7132 24.6771C46.8076 22.3496 46.2081 20.4615 45.273 18.9067C45.7954 20.5271 45.7223 22.5115 43.9466 24.363C43.9466 24.363 47.4804 20.13 42.5393 15.7912C40.5613 14.1401 38.3981 13.1208 37.284 12.3983C41.3093 13.7104 43.2739 12.2653 43.2739 12.2653C41.9879 13.3789 40.3242 13.3596 39.2926 13.1998C39.5722 13.3366 39.8635 13.4791 40.1776 13.6467C43.5707 15.4887 46.6207 18.5194 47.1411 22.7177V22.6849C47.9316 26.8061 49.6879 27.8638 49.6879 27.8638Z" fill="white"/>
<path d="M17.2501 32.4494C17.2501 32.4494 18.4358 32.3011 18.9486 31.8406C19.7486 31.1142 19.6929 30.2742 19.6929 30.2742C17.8806 30.2491 16.6949 29.6326 15.7849 28.5884C14.8113 27.4554 14.6494 26.2358 14.6494 26.2358C14.6494 26.2358 15.6229 27.1183 17.5046 27.1183C17.6743 27.1183 17.8497 27.1105 18.0309 27.0932C18.9235 27.0219 19.5405 26.4554 19.5405 26.4554C17.5777 25.1992 16.2014 23.0067 17.4198 19.7043C18.3972 17.0589 20.7434 15.0821 23.1091 13.5928C23.8956 13.1015 24.3332 12.5561 24.3332 12.0861C24.3332 10.9802 22.762 10.9435 22.118 10.2018C21.3721 9.33872 21.8404 7.93796 22.4843 7.09598C22.4843 7.09598 22.2704 7.05176 21.9252 7.05176C21.2466 7.05176 20.0687 7.2213 19.1009 8.22507C17.813 9.5545 18.3471 11.0013 18.3471 11.0013L18.002 11.0689C17.7958 11.1131 17.5894 11.1208 17.3792 11.1323C17.3312 11.1323 17.2886 11.1344 17.2424 11.1344C15.3705 11.1344 14.5395 9.18452 14.5395 9.18452C14.5395 9.18452 12.5557 11.6238 15.4764 13.5369C15.9797 13.8645 16.1995 14.1669 16.1416 14.4906L16.0953 14.7026L15.8832 14.7392C13.7684 15.3134 12.6945 16.7738 11.3855 18.4346C9.40164 20.9567 6.59268 21.0394 6.24193 21.0394H6.20325C6.20325 21.0394 6.8453 23.0645 8.73653 23.0645C8.76741 23.0645 8.79437 23.0645 8.82713 23.0626C9.69658 23.0317 10.1439 22.6985 10.1439 22.6985C10.1439 22.6985 10.4794 27.2935 7.04965 28.7194C7.04965 28.7194 7.67431 29.8041 9.1067 29.8041H9.12408C10.8456 29.7944 11.5378 28.7463 11.5378 28.7463C11.5378 28.7463 11.4375 30.1104 12.0545 31.9504C12.8005 34.1681 12.0525 35.7537 12.0525 35.7537C12.0525 35.7537 12.4535 35.8617 12.9143 35.8617C13.0935 35.8617 13.2767 35.8443 13.4483 35.798C14.8825 35.4569 15.2431 34.1507 15.2431 34.1507C15.2431 34.1507 15.112 38.5647 20.2615 38.5647H20.298C20.298 38.5647 19.847 37.9481 19.7159 36.1738C19.4692 32.8983 17.2501 32.4494 17.2501 32.4494ZM16.4231 33.247C14.3545 30.8271 12.5866 28.3128 12.3532 24.6906C12.1393 25.3477 11.2601 27.1761 9.86441 27.8638C9.86441 27.8638 11.6187 26.8061 12.4073 22.6849V22.7177C12.9298 18.5214 15.9778 15.4887 19.3727 13.6467C19.6831 13.4772 19.9781 13.3347 20.2557 13.1998C19.2243 13.3596 17.5605 13.3789 16.2745 12.2653C16.2745 12.2653 18.2391 13.7104 22.2626 12.3983C21.1483 13.1208 18.9871 14.1401 17.0091 15.7912C12.066 20.13 15.6018 24.363 15.6018 24.363C13.8243 22.5095 13.753 20.5271 14.2753 18.9067C13.3385 20.4634 12.7408 22.3496 12.8372 24.6771C12.9721 28.0122 14.8055 30.8964 16.7315 33.2144C17.6628 34.3376 17.8728 35.7209 17.8728 35.7209C17.8728 35.7209 17.4948 34.5013 16.4231 33.247Z" fill="white"/>
<path d="M25.9668 16.3113C26.0515 16.4017 26.1343 16.5002 26.2135 16.5983C26.2327 16.6215 26.25 16.6427 26.2692 16.6697C26.3427 16.7678 26.4178 16.872 26.4892 16.9779C26.5045 16.9991 26.52 17.0242 26.5373 17.0491C26.6241 17.1802 26.7051 17.3151 26.786 17.4539C27.5283 18.735 28.7179 19.4999 29.7723 19.5019C30.8288 19.4999 32.0145 18.735 32.7606 17.4539C32.8435 17.3112 32.9265 17.1725 33.0131 17.0434C33.0266 17.0242 33.0402 17.0068 33.0516 16.9876C33.1249 16.8777 33.2021 16.7698 33.2831 16.6658C33.3004 16.6427 33.3158 16.6234 33.3313 16.6041C33.4141 16.502 33.4989 16.4018 33.5858 16.3093C33.601 16.2939 33.6126 16.2804 33.6261 16.2689C34.0039 15.8816 34.4552 15.5868 35.0451 15.4231L34.7829 15.2709H34.7675L33.7225 14.664L32.6487 14.0493L29.78 15.61L29.7723 15.6041L29.7665 15.61L26.8959 14.0493L25.824 14.662L24.7772 15.2689H24.7656L24.4995 15.4212C25.0914 15.5849 25.5405 15.8758 25.9204 16.2631C25.9377 16.2785 25.9493 16.2958 25.9668 16.3113ZM28.6116 16.186H29.8262H31.0389V17.0183C30.7538 16.6697 30.1985 16.741 30.1985 16.741V17.9413C30.1985 17.9413 30.2196 18.5309 30.4258 18.787H29.8262H29.2248C29.4349 18.5328 29.4542 17.9413 29.4542 17.9413V16.741C29.4542 16.741 28.9009 16.6697 28.6116 17.0183V16.186Z" fill="white"/>
<path d="M29.5255 14.5711V9.69858L26.4216 8.64648L27.241 13.3689L29.5255 14.5711ZM28.8585 10.8951V11.6773L28.7081 11.6079C28.7005 11.6021 28.4807 11.552 28.095 11.2475C27.4588 10.7544 27.4474 10.2996 27.4474 10.2996L28.8585 10.8951Z" fill="white"/>
<path d="M32.3095 13.3689L33.1251 8.64648L30.0231 9.69858V14.5711L32.3095 13.3689ZM30.6902 10.8951L32.1012 10.3016C32.1012 10.3016 32.0898 10.7563 31.4517 11.2495C31.068 11.5539 30.8462 11.6039 30.8386 11.6098L30.6881 11.6791V10.8951H30.6902Z" fill="white"/>
<path d="M25.1361 25.8688C25.4387 25.9786 25.805 26.0018 25.992 26.0018C25.9998 25.9786 26.0093 25.9496 26.0191 25.915C26.0363 25.8592 26.0519 25.8052 26.0635 25.7435C26.1155 25.4739 26.1347 25.1675 26.1386 24.971C26.0112 24.8919 25.8321 24.7512 25.7319 24.5413C25.6162 24.2985 25.4523 24.1868 25.2112 24.1868C24.899 24.1868 24.5635 24.3736 24.4208 24.4624C24.3072 25.1347 24.8025 25.7455 25.1361 25.8688Z" fill="white"/>
<path d="M32.0011 23.2816C31.4246 23.9078 30.2968 24.9984 30.2409 25.0542L30.1735 25.1236L26.6089 25.0677C26.6068 25.4203 26.549 25.7209 26.4931 25.9405C26.4835 25.9771 26.4739 26.0156 26.4641 26.0542L30.7055 26.8153C31.147 26.507 32.3616 25.6206 32.832 25.2739C32.4888 24.773 32.456 24.1795 32.5331 23.7615C32.3096 23.6169 32.1379 23.4551 32.0011 23.2816Z" fill="white"/>
<path d="M32.485 18.9975C31.6635 19.8125 30.8751 20.113 30.1714 20.1824C30.0442 20.1959 29.915 20.2035 29.784 20.2035H29.7742H29.7665C29.6355 20.2035 29.5043 20.1959 29.3771 20.1824C29.2537 20.1708 29.1246 20.1516 28.9955 20.1227C28.949 20.3057 28.8912 20.6891 29.0571 21.0513C29.2055 21.3808 29.5082 21.6255 29.9497 21.7874L30.0981 21.8451L30.1001 22.0051C30.1001 22.0532 30.1348 23.0898 31.2665 23.3768C31.4515 23.1861 31.6192 23.0147 31.7427 22.872C31.5112 22.3287 31.6327 21.7738 31.9681 21.5021C31.9528 21.5599 31.8063 22.9203 32.8975 23.4249L33.0768 23.5099L33.0227 23.7006C33.0053 23.7584 32.641 25.0743 33.9617 25.5637L34.1949 25.6523L34.0907 25.8797C34.0677 25.9297 33.5491 27.1244 34.7695 27.8025H37.4163V25.7024C36.4757 25.5868 36.0765 24.8316 35.9743 24.2959C35.5368 24.2207 35.1975 24.032 34.966 23.7237C34.4107 22.9934 34.8889 22.3249 34.8947 22.2883C34.8929 22.2941 34.8947 23.0069 35.3343 23.4462C35.5521 23.6581 35.8106 23.822 36.2018 23.8586L36.3946 23.8759L36.412 24.0725C36.4157 24.1148 36.5219 25.0782 37.4183 25.2304L37.4163 20.9415C37.4163 20.2768 37.6112 19.6083 37.8445 18.9917H32.485V18.9975Z" fill="white"/>
<path d="M25.3615 20.9614L25.2902 23.6936L25.6005 23.7398L26.3602 21.1195L25.9746 20.3141L25.3615 20.9614Z" fill="white"/>
<path d="M33.7363 33.4915C33.7594 33.4915 33.7864 33.4954 33.8115 33.5011C34.2838 33.6361 34.4034 35.3392 35.2323 35.4914C35.3133 35.5088 35.3885 35.5126 35.4541 35.5126C35.6931 35.5126 35.8358 35.4104 35.99 35.2294C35.99 35.2294 35.5735 34.5743 35.2613 34.1332C34.8468 33.5551 34.5249 32.8556 33.7537 32.8556C33.7363 32.8556 33.7133 32.8556 33.694 32.8577C33.4395 32.8711 33.2832 32.9944 33.2832 32.9944C32.9709 32.7979 32.6799 32.7304 32.4156 32.7304C31.9319 32.7304 31.556 32.9521 31.3688 32.9521H31.3612L29.6376 32.7826C29.3677 32.7575 29.1557 32.4858 29.0786 32.3799C29.0592 32.3509 29.0496 32.3336 29.0496 32.3336C29.0496 32.2873 29.0496 32.2392 29.0458 32.1968C28.9879 30.7884 27.8968 30.1853 27.5092 30.1756C27.5092 30.1756 27.5555 29.9079 27.4496 29.8058L27.0697 30.2662L25.8224 29.64L26.7111 30.6786L25.9573 31.5243C25.8627 31.6208 25.8744 31.7518 25.9129 31.8057L26.2387 32.0928L26.6514 31.8423C26.6725 31.8269 26.7092 31.823 26.7554 31.823C26.8692 31.823 27.0408 31.8518 27.195 31.8518C27.3627 31.8518 27.5092 31.8152 27.5266 31.6572C27.4746 32.1794 26.9906 33.0869 27.3087 33.7998L27.544 34.3374L26.0209 34.1176L25.3075 35.3219C25.0878 35.7227 25.0531 36.1561 25.2652 36.3912L25.5312 36.7246C25.5312 36.7246 25.9053 36.3276 25.9901 36.0675L25.8685 35.9345C25.7664 35.8228 25.7722 35.7227 25.8339 35.6013L26.2812 34.8594L28.0799 35.2834L28.1743 35.1215C28.2957 34.9192 28.4713 34.8575 28.6641 34.8575C28.7431 34.8575 28.8241 34.8671 28.9089 34.8807C29.2425 34.9462 29.792 35.0348 30.3414 35.0348C30.9448 35.0348 31.5424 34.9269 31.8604 34.5705C32.5121 35.5358 33.8327 35.6899 33.7286 36.1792L33.3816 37.8324C33.6111 37.8227 33.8327 37.8073 34.0428 37.7784L34.3726 36.0578C34.4093 35.8709 34.4438 35.6185 34.4438 35.6185C34.3166 35.4895 34.0081 35.2159 33.8347 34.8845C33.6013 34.4374 33.7286 34.2044 33.5108 33.6225C33.5184 33.6264 33.584 33.4915 33.7363 33.4915ZM27.0081 31.0754C26.9193 31.0735 26.8557 30.9984 26.8595 30.9098C26.8673 30.825 26.9385 30.7575 27.0253 30.7652C27.114 30.7691 27.1777 30.8462 27.1738 30.931C27.166 31.0157 27.0929 31.0813 27.0081 31.0754Z" fill="white"/>
<path d="M24.5519 35.0557C24.5519 35.0557 25.1475 34.811 25.2014 34.6356L25.1225 34.4372C25.0665 34.3081 25.0743 34.1674 25.1822 34.0904L25.8261 33.6453L26.9019 33.8514C26.9019 33.8514 26.7071 33.6087 26.7265 33.283L25.7009 33.0653L24.733 33.6549C24.3185 33.9651 24.2876 34.4718 24.4246 34.7723L24.5519 35.0557Z" fill="white"/>
<path d="M32.1552 37.8583C32.3479 37.8507 32.5599 37.8468 32.7933 37.8468C32.7933 37.8468 33.3467 36.2303 33.3774 36.1784C33.0671 36.0415 32.4231 35.7004 32.1744 35.5444C32.3383 35.7891 32.7374 36.0704 32.6584 36.2862L32.1552 37.8583Z" fill="white"/>
<path d="M37.4216 28.2699H22.1277V34.0191C22.1277 36.3697 23.8301 37.8418 26.342 37.8418C28.4416 37.8418 28.9948 37.9226 29.7757 38.6972C30.3135 38.1616 30.7589 37.9611 31.6727 37.886L31.6939 37.7975L32.1758 36.3081C32.1488 36.2753 31.3604 35.3795 31.3604 35.3795C31.0481 35.4836 30.7859 35.5009 30.3444 35.5009C29.8913 35.5009 29.3805 35.4488 28.8272 35.3448C28.7712 35.3314 28.7192 35.3274 28.667 35.3274C28.5996 35.3274 28.5939 35.3332 28.5765 35.366L28.4801 35.5239L28.3047 35.8129L27.975 35.7378L26.5079 35.3929L26.3073 35.7244L26.3382 35.759L26.5175 35.9555L26.4385 36.2118C26.3305 36.547 25.9796 36.9381 25.8737 37.0461L25.5072 37.4391L25.1738 37.0172L24.9232 36.7031C24.659 36.4084 24.5974 35.9555 24.7458 35.4816C24.7419 35.4854 24.7361 35.4873 24.7304 35.4873L24.3159 35.6588L24.1288 35.2541L23.9977 34.9672C23.7723 34.4624 23.855 33.7244 24.4624 33.2793L25.6443 32.6127L26.7682 32.8343C26.7952 32.7263 26.8355 32.341 26.8683 32.2429C26.8472 32.2409 26.8261 32.2351 26.8047 32.2351L26.157 32.4759L25.5323 32.0444C25.5323 32.0444 25.2875 31.8092 25.5091 31.5742L26.1145 30.6591L24.5818 28.7361L26.9377 29.7035L27.094 29.5088L27.412 29.1292L27.7726 29.4722C27.8748 29.5705 27.9326 29.6918 27.9615 29.8132C28.6111 30.0656 29.7736 30.8113 29.8758 32.0231L29.5115 32.1695V32.1792C29.5944 32.2775 29.6638 32.318 29.6849 32.3217L31.3661 32.4875C31.4086 32.4798 31.4626 32.4605 31.5223 32.4432C31.7306 32.3719 32.0448 32.2698 32.4168 32.2698C32.7196 32.2698 33.0124 32.3391 33.294 32.4702C33.3981 32.4317 33.5254 32.4027 33.672 32.3931L33.7528 32.3912C34.6532 32.3912 35.1003 33.0635 35.4591 33.5993C35.5188 33.6916 35.5786 33.7803 35.6403 33.8669C35.9545 34.3102 36.3651 34.9594 36.3825 34.9865L36.5676 35.2755L36.34 35.5394C36.1647 35.7416 35.9025 35.9787 35.4513 35.9787C35.3589 35.9787 35.2567 35.9691 35.1468 35.9478C35.0504 35.9305 34.9636 35.9015 34.8788 35.8669C34.8653 35.9555 34.8479 36.0615 34.8305 36.152L34.5356 37.6895C36.2996 37.2561 37.4197 35.9247 37.4197 34.0211L37.4216 28.2699Z" fill="#FFDD2D"/>
<path d="M22.128 27.8082H34.021C33.4273 27.1955 33.4351 26.4191 33.5873 25.9142C33.4138 25.8313 33.2711 25.7311 33.144 25.6233C32.6793 25.9662 31.2604 26.999 30.8902 27.257L30.8112 27.3111L26.1437 26.4672H26.0493C25.9375 26.4672 25.7736 26.4633 25.5943 26.4421C25.5442 26.6521 25.363 26.7967 25.1547 26.7967C25.1316 26.7967 25.1046 26.7947 25.0796 26.7889C24.958 26.7677 24.8522 26.706 24.7808 26.6039C24.7076 26.5038 24.6787 26.3843 24.6998 26.2611L24.7171 26.1608C24.2352 25.8218 23.7918 25.0645 23.9883 24.2669L24.0076 24.1821L24.0751 24.1339C24.0848 24.1263 24.1657 24.0723 24.2853 24.0029L23.946 23.9509C23.8187 23.9278 23.7339 23.8102 23.7533 23.6851C23.7745 23.5579 23.894 23.4672 24.0192 23.4923L24.8271 23.6195L24.9003 20.7756L26.1033 19.504L26.8533 21.0821L26.0608 23.818L26.7742 23.9297C26.8995 23.949 26.9863 24.0665 26.9671 24.1956C26.9477 24.3092 26.8514 24.3883 26.7376 24.3883C26.726 24.3883 26.7125 24.3883 26.7009 24.3864L26.1206 24.292C26.1284 24.3092 26.1398 24.3188 26.1476 24.3381C26.2093 24.4653 26.3462 24.5578 26.4271 24.5963L29.9862 24.6522C30.1364 24.5058 30.5105 24.1397 30.8941 23.7524C30.0189 23.421 29.7007 22.6658 29.6467 22.1648C29.1571 21.9567 28.8197 21.6447 28.6327 21.238C28.4052 20.7353 28.4861 20.2324 28.5459 19.9877C28.0717 19.8142 27.5724 19.4984 27.0633 18.9935H21.7039C21.9333 19.6099 22.128 20.2787 22.128 20.9434V27.8082Z" fill="#FFDD2D"/>
<path d="M27.0271 30.7656C26.9402 30.7579 26.8669 30.8252 26.8611 30.91C26.8553 30.9986 26.9209 31.0737 27.0097 31.0756C27.0945 31.0834 27.1699 31.0179 27.1775 30.9312C27.1775 30.8464 27.1159 30.7675 27.0271 30.7656Z" fill="#2C3F4D"/>
<path d="M37.401 41.1898L36.52 40.8525L36.7628 39.9432L37.0308 38.9509C37.0308 38.9509 35.4692 39.7968 33.2695 40.4327C32.6448 40.6118 32.1725 40.6927 32.1725 40.6927V41.367C32.1725 41.367 30.9965 41.5713 29.807 41.5713H29.7934H29.7761H29.753H29.7394C28.55 41.5713 27.374 41.367 27.374 41.367V40.6927C27.374 40.6927 26.8996 40.6118 26.277 40.4327C24.0772 39.7968 22.5175 38.9509 22.5175 38.9509L22.7816 39.9432L23.0304 40.8525L22.1474 41.1898L21.1681 41.5558C22.292 42.0972 23.8478 42.8873 25.2726 43.2764L24.9371 44.1935C24.9371 44.1935 26.7436 45.0162 29.753 45.024V45.0259H29.7627H29.7761H29.7878H29.7953V45.024C32.8088 45.0162 34.6131 44.1935 34.6131 44.1935L34.2757 43.2764C35.7004 42.8873 37.2602 42.0972 38.3784 41.5558L37.401 41.1898ZM22.213 41.6175L23.6627 41.1359L23.2348 39.739C23.8728 40.1012 25.3054 40.6445 26.1343 40.8969L25.4345 42.8178C24.1543 42.4653 23.0882 42.0549 22.213 41.6175ZM29.7761 44.5422C28.093 44.5422 26.1709 44.155 25.6061 43.9547L26.4658 41.6291C27.1792 41.8372 28.6638 42.0587 29.7413 42.0509H29.7433H29.7761H29.805H29.8089C30.8867 42.0587 32.3672 41.8372 33.0844 41.6291L33.9422 43.9547C33.3774 44.1569 31.4572 44.5422 29.7761 44.5422ZM34.1139 42.8178L33.4161 40.8969C34.2469 40.6445 35.6754 40.1012 36.3156 39.739L35.8895 41.1359L37.3373 41.6175C36.4601 42.0549 35.3997 42.4653 34.1139 42.8178Z" fill="#2C3F4D"/>
<path d="M29.7745 4.8912C31.5674 4.8912 33.0017 5.4847 33.7941 6.11862C33.7941 6.11862 34.0292 4.70241 34.8332 3.45205L33.3892 3.61575L32.6335 2.01086L31.1818 2.75845L29.7745 1.36731L28.3709 2.75845L26.9173 2.01086L26.1635 3.61575L24.7195 3.45205C25.5233 4.70241 25.7586 6.11862 25.7586 6.11862C26.5529 5.4847 27.9834 4.8912 29.7745 4.8912ZM26.0979 4.17834L26.499 4.22079L26.6725 3.85663L27.1775 2.7777L28.1145 3.26122L28.477 3.44621L28.7662 3.16112L29.7764 2.15924L30.7885 3.16112L31.0777 3.44621L31.4401 3.26122L32.3714 2.7777L32.8823 3.85663L33.0519 4.22079L33.4528 4.17834L33.8346 4.13209C33.6592 4.52716 33.5299 4.90083 33.4374 5.21114C32.4271 4.64856 31.1124 4.32862 29.7726 4.32862C28.4385 4.32862 27.1255 4.64856 26.1114 5.21114C26.017 4.90083 25.8898 4.52513 25.7142 4.13209L26.0979 4.17834Z" fill="#2C3F4D"/>
<path d="M50.8096 23.6819C53.1289 23.6819 53.9039 21.3237 53.9366 21.2235L54.195 20.393L53.3255 20.42H53.3218C53.0152 20.42 50.4568 20.3526 48.6427 18.0482L48.4711 17.8344C47.2855 16.3278 46.1615 14.8962 44.1526 14.243C44.2105 14.1911 44.2934 14.1255 44.4071 14.0523C45.4732 13.351 46.094 12.4993 46.2501 11.511C46.4776 10.0235 45.5292 8.83864 45.4868 8.79048L44.8409 7.99285L44.438 8.93886C44.4111 8.99854 43.7323 10.513 42.3057 10.513H42.1996C42.1014 10.5071 42.0088 10.5033 41.9163 10.4955C41.9665 9.81933 41.8429 8.77312 40.8945 7.7924C39.755 6.61135 38.3555 6.43408 37.623 6.43408C37.2315 6.43408 36.9712 6.48224 36.9442 6.48617L35.9688 6.67876L36.5703 7.47069C37.0426 8.08143 37.4706 9.20862 36.9635 9.79815C36.8015 9.98502 36.4682 10.1372 36.1481 10.2894C35.4906 10.5918 34.5941 11.0119 34.5941 12.0832C34.5941 12.7768 35.1321 13.5012 36.1075 14.1177C38.9956 15.9327 40.7769 17.8267 41.5462 19.9171C42.7357 23.1329 41.1836 24.967 39.6761 25.9324L38.9993 26.3677L39.5913 26.911C39.6702 26.9805 40.3952 27.6182 41.4651 27.7107C41.6675 27.7242 41.8622 27.7357 42.0435 27.7357C42.7299 27.7357 43.3141 27.6278 43.7882 27.4832C43.6571 27.7126 43.4971 27.9457 43.2947 28.1808C42.433 29.1787 41.3727 29.6335 39.8477 29.6566L39.2808 29.6663L39.2365 30.2346C39.2306 30.3483 39.1884 31.4022 40.1869 32.2982C40.3393 32.4368 40.5244 32.5506 40.7171 32.645C40.0405 33.2538 39.3521 34.3135 39.2193 36.1304C39.1074 37.6466 38.7449 38.2074 38.741 38.213L38.1146 39.1687L39.2462 39.1842C41.1162 39.1842 42.5486 38.6678 43.5414 37.6466C44.1276 37.0416 44.4631 36.3596 44.6616 35.7547C44.9875 36.032 45.4078 36.2748 45.9552 36.4039C46.1634 36.4521 46.391 36.479 46.6358 36.479C47.1641 36.479 47.6056 36.3673 47.6557 36.3558L48.3785 36.163L48.0586 35.4887C48.0354 35.4348 47.4321 34.0822 48.0816 32.1517C48.3612 31.3174 48.5039 30.5698 48.5732 29.988C49.0283 30.2249 49.6376 30.4215 50.4259 30.4234C52.2151 30.4234 53.0036 29.0882 53.0402 29.0324L53.393 28.4196L52.7395 28.1499C50.6072 27.2656 50.135 24.8899 50.0404 23.6029C50.2332 23.6395 50.4531 23.6742 50.7016 23.6819H50.8096ZM52.5003 28.7182C52.5003 28.7182 51.8757 29.8031 50.4433 29.8031H50.4259C48.7063 29.7934 48.0123 28.7453 48.0123 28.7453C48.0123 28.7453 48.1125 30.1094 47.4918 31.9494C46.7456 34.167 47.4975 35.7528 47.4975 35.7528C47.4975 35.7528 47.0965 35.8606 46.6339 35.8606C46.4564 35.8606 46.2714 35.8433 46.0979 35.797C44.6616 35.456 44.3031 34.1497 44.3031 34.1497C44.3031 34.1497 44.436 38.5638 39.2867 38.5638H39.2462C39.2462 38.5638 39.6992 37.9472 39.8342 36.1726C40.0789 32.8973 42.2981 32.4485 42.2981 32.4485C42.2981 32.4485 41.1142 32.3001 40.6014 31.8396C39.7994 31.1132 39.8553 30.2731 39.8553 30.2731C41.6675 30.2481 42.8533 29.6316 43.7573 28.5854C44.7369 27.4525 44.8987 26.2329 44.8987 26.2329C44.8987 26.2329 43.9251 27.1153 42.0417 27.1153C41.8758 27.1153 41.6984 27.1076 41.5172 27.0902C40.6265 27.019 40.0096 26.4524 40.0096 26.4524C41.9702 25.1963 43.3468 23.0037 42.1265 19.7013C41.1489 17.056 38.8008 15.0792 36.4373 13.5899C35.6506 13.0986 35.213 12.5534 35.213 12.0832C35.213 10.9773 36.7862 10.9426 37.432 10.1988C38.1761 9.33571 37.7096 7.93507 37.0638 7.0931C37.0638 7.0931 37.2816 7.04875 37.6248 7.04875C38.3053 7.04875 39.4833 7.22018 40.451 8.22207C41.737 9.55149 41.2029 10.9985 41.2029 10.9985L41.5481 11.0659C41.7543 11.1102 41.9587 11.118 42.1708 11.1275C42.2169 11.1275 42.2633 11.1295 42.3095 11.1295C44.1777 11.1295 45.0125 9.1777 45.0125 9.1777C45.0125 9.1777 46.9983 11.6189 44.0755 13.5301C43.5723 13.8576 43.3505 14.1601 43.4085 14.4838L43.4548 14.6958L43.663 14.7324C45.7817 15.3066 46.8537 16.7671 48.1627 18.4277C50.1503 20.9537 52.9632 21.0347 53.3101 21.0347H53.3468C53.3468 21.0347 52.7047 23.0596 50.8135 23.0596C50.7826 23.0596 50.7557 23.0596 50.7229 23.0577C49.8534 23.0268 49.4081 22.6936 49.4081 22.6936C49.4081 22.6936 49.0668 27.2925 52.5003 28.7182Z" fill="#2C3F4D"/>
<path d="M46.7356 14.498C47.6011 14.9584 48.1044 15.575 48.5459 16.1221C48.9796 16.6558 49.3923 17.1703 50.036 17.3842C50.2654 17.4632 50.5083 17.4998 50.7552 17.4998C51.7229 17.4998 52.6947 16.9083 53.0628 16.0895L53.433 15.2686L52.5366 15.2147C52.4941 15.2128 51.3412 15.1087 50.0574 13.7966C49.5291 13.2592 48.8909 12.9758 48.2026 12.9758C47.3622 12.9758 46.7393 13.3959 46.6699 13.4383L45.8448 14.0183L46.7356 14.498ZM48.2046 13.5964C48.6364 13.5964 49.1396 13.7427 49.6159 14.234C51.1098 15.7504 52.4999 15.8351 52.4999 15.8351C52.2474 16.3938 51.5148 16.8852 50.7571 16.8852C50.5818 16.8852 50.4062 16.8582 50.2308 16.7985C49.2032 16.4517 48.835 14.9103 47.0285 13.9507C47.0285 13.9507 47.5338 13.5964 48.2046 13.5964Z" fill="#2C3F4D"/>
<path d="M47.1401 22.6842V22.7151C46.6197 18.5188 43.5697 15.4881 40.1766 13.6442C39.8624 13.4765 39.5732 13.334 39.2918 13.1972C40.3251 13.3571 41.9889 13.3764 43.2728 12.2627C43.2728 12.2627 41.3083 13.7078 37.2828 12.3957C38.3973 13.1182 40.5623 14.1375 42.5383 15.7886C47.4796 20.1274 43.9437 24.3604 43.9437 24.3604C45.7194 22.509 45.7926 20.5245 45.2702 18.9041C46.2051 20.4589 46.8028 22.347 46.7102 24.6745C46.5735 28.0096 44.74 30.8939 42.8101 33.2118C41.8827 34.3369 41.6747 35.7184 41.6747 35.7184C41.6747 35.7184 42.0486 34.4988 43.1224 33.2444C45.191 30.8246 46.9589 28.3102 47.1902 24.688C47.4043 25.3451 48.2854 27.1735 49.6831 27.8613C49.6868 27.8632 47.9306 26.8055 47.1401 22.6842Z" fill="#2C3F4D"/>
<path d="M20.8071 38.2121C20.8052 38.2064 20.4466 37.6458 20.331 36.1294C20.1961 34.3126 19.5096 33.2529 18.8311 32.644C19.0277 32.5516 19.2089 32.4379 19.3612 32.2973C20.358 31.4013 20.3154 30.3475 20.3097 30.2338L20.2711 29.6654L19.7005 29.6558C18.1794 29.6307 17.1171 29.176 16.2553 28.1798C16.0548 27.9449 15.8929 27.7117 15.7619 27.4825C16.236 27.6269 16.8163 27.7349 17.5045 27.7349C17.6897 27.7349 17.8806 27.7232 18.083 27.7098C19.153 27.6173 19.8779 26.9813 19.9588 26.9102L20.5506 26.367L19.874 25.9314C18.3606 24.9642 16.8144 23.13 18.002 19.9163C18.7712 17.8258 20.5506 15.9318 23.4425 14.1168C24.4181 13.5002 24.952 12.776 24.952 12.0823C24.952 11.011 24.0575 10.5891 23.4001 10.2885C23.08 10.1363 22.7466 9.98415 22.5847 9.79727C22.0757 9.20954 22.5055 8.08056 22.976 7.4697L23.5814 6.6779L22.602 6.48518C22.5731 6.48137 22.3166 6.43323 21.9234 6.43323C21.1907 6.43323 19.7949 6.61049 18.6536 7.79154C17.7032 8.77417 17.578 9.82037 17.6261 10.4947C17.5335 10.5024 17.4411 10.5063 17.3446 10.512H17.2406C15.8101 10.512 15.1334 8.99768 15.1064 8.93788L14.7033 7.99187L14.0517 8.7895C14.0152 8.83778 13.0628 10.0246 13.2941 11.51C13.4483 12.4983 14.0691 13.3499 15.1352 14.0514C15.2509 14.1246 15.3318 14.1901 15.3897 14.2422C13.3828 14.8952 12.2608 16.3287 11.0751 17.8354L10.9035 18.0493C9.09134 20.3536 6.52719 20.4212 6.22065 20.4212L5.34741 20.3941L5.61338 21.2244C5.64424 21.3246 6.41732 23.683 8.73844 23.683L8.85032 23.6792C9.09512 23.6714 9.31498 23.6387 9.51164 23.6001C9.41514 24.8852 8.94281 27.2609 6.80864 28.1472L6.15702 28.4169L6.50992 29.0295C6.54458 29.0854 7.33504 30.4207 9.12788 30.4207C9.91066 30.4187 10.5198 30.2221 10.9768 29.9852C11.0462 30.567 11.1888 31.3146 11.4684 32.1489C12.1181 34.0794 11.5127 35.4319 11.4896 35.4859L11.1696 36.1604L11.8945 36.353C11.9426 36.3645 12.388 36.4761 12.9143 36.4761C13.1611 36.4761 13.3886 36.4492 13.593 36.401C14.1424 36.2719 14.5665 36.0293 14.8884 35.7518C15.0851 36.3567 15.4225 37.0389 16.0067 37.6439C17.0014 38.665 18.4318 39.1812 20.3019 39.1812L21.4356 39.166L20.8071 38.2121ZM20.2595 38.5648C15.1101 38.5648 15.2413 34.1507 15.2413 34.1507C15.2413 34.1507 14.8828 35.457 13.4465 35.7981C13.2749 35.8443 13.0917 35.8617 12.9124 35.8617C12.4497 35.8617 12.0506 35.7536 12.0506 35.7536C12.0506 35.7536 12.7986 34.1681 12.0525 31.9505C11.4356 30.1104 11.5359 28.7464 11.5359 28.7464C11.5359 28.7464 10.8437 29.7944 9.12222 29.804H9.10483C7.67244 29.804 7.04777 28.7193 7.04777 28.7193C10.4794 27.2955 10.142 22.6985 10.142 22.6985C10.142 22.6985 9.69673 23.0297 8.82525 23.0626C8.79439 23.0644 8.76554 23.0645 8.73466 23.0645C6.8414 23.0645 6.20138 21.0396 6.20138 21.0396H6.23993C6.58892 21.0396 9.39788 20.9586 11.3855 18.4326C12.6945 16.7718 13.7683 15.3133 15.8832 14.7374L16.0952 14.7008L16.1416 14.4888C16.1994 14.1651 15.9797 13.8626 15.4765 13.535C12.5538 11.6217 14.5396 9.18255 14.5396 9.18255C14.5396 9.18255 15.3705 11.1325 17.2424 11.1325C17.2887 11.1325 17.3311 11.1305 17.3793 11.1305C17.5893 11.1189 17.7977 11.1112 18.002 11.067L18.3471 10.9995C18.3471 10.9995 17.8131 9.55254 19.1009 8.22312C20.0687 7.21933 21.2466 7.04979 21.9252 7.04979C22.2703 7.04979 22.4844 7.09402 22.4844 7.09402C21.8405 7.9379 21.3739 9.33676 22.1179 10.2C22.7619 10.9417 24.3332 10.9783 24.3332 12.0842C24.3332 12.5524 23.8956 13.0997 23.1091 13.5909C20.7434 15.0803 18.3954 17.057 17.4197 19.7024C16.2014 23.0048 17.576 25.1954 19.5404 26.4536C19.5404 26.4536 18.9235 27.02 18.0309 27.0914C17.8498 27.1087 17.6743 27.1163 17.5045 27.1163C15.623 27.1163 14.6494 26.2338 14.6494 26.2338C14.6494 26.2338 14.8113 27.4536 15.785 28.5865C16.6949 29.6326 17.8806 30.2491 19.6928 30.2743C19.6928 30.2743 19.7507 31.1143 18.9486 31.8405C18.4339 32.299 17.25 32.4494 17.25 32.4494C17.25 32.4494 19.4711 32.8983 19.714 36.1737C19.847 37.9481 20.2962 38.5648 20.2962 38.5648H20.2595Z" fill="#2C3F4D"/>
<path d="M8.79133 17.5025C9.04003 17.5025 9.28294 17.4658 9.51225 17.3867C10.1601 17.1729 10.5707 16.6585 11.0045 16.1248C11.448 15.5776 11.9473 14.9611 12.8128 14.5006L13.7036 14.0228L12.8764 13.4428C12.807 13.3985 12.1863 12.9805 11.3477 12.9805C10.6575 12.9805 10.0175 13.2617 9.49108 13.8011C8.20712 15.1113 7.05618 15.2172 7.01372 15.2192L6.11731 15.2712L6.48558 16.0939C6.85561 16.9089 7.82536 17.5025 8.79133 17.5025ZM9.93256 14.2367C10.4107 13.7452 10.9139 13.5989 11.3477 13.5989C12.0147 13.5989 12.5198 13.9533 12.5198 13.9533C10.7153 14.9148 10.3452 16.4543 9.31369 16.8011C9.1441 16.8608 8.96671 16.8878 8.79133 16.8878C8.03361 16.8878 7.30099 16.3984 7.05039 15.8377C7.05039 15.8358 8.43843 15.7509 9.93256 14.2367Z" fill="#2C3F4D"/>
<path d="M12.8378 24.6765C12.7414 22.349 13.3391 20.4608 14.276 18.906C13.7535 20.5263 13.8249 22.5109 15.6024 24.3625C15.6024 24.3625 12.0666 20.1295 17.0097 15.7905C18.9878 14.1393 21.1509 13.1201 22.2633 12.3976C18.2398 13.7096 16.2752 12.2646 16.2752 12.2646C17.5591 13.3783 19.223 13.3591 20.2564 13.1973C19.9769 13.334 19.6837 13.4766 19.3732 13.6442C15.9765 15.488 12.9284 18.5187 12.4059 22.7151V22.6824C11.6175 26.8036 9.86304 27.8613 9.86304 27.8613C11.2589 27.1734 12.138 25.347 12.352 24.6881C12.5853 28.3103 14.3531 30.8246 16.4217 33.2446C17.4955 34.4987 17.8735 35.7184 17.8735 35.7184C17.8735 35.7184 17.6633 34.3369 16.7322 33.2117C14.8062 30.8978 12.9727 28.0116 12.8378 24.6765Z" fill="#2C3F4D"/>
<path d="M28.6115 16.1868V17.0191C28.8988 16.6703 29.454 16.7417 29.454 16.7417V17.9421C29.454 17.9421 29.4347 18.5316 29.2246 18.7878H29.8261H30.4256C30.2194 18.5335 30.1981 17.9421 30.1981 17.9421V16.7417C30.1981 16.7417 30.7534 16.6703 31.0387 17.0191V16.1868H29.8261H28.6115Z" fill="#2C3F4D"/>
<path d="M28.0952 11.25C28.4788 11.5546 28.7006 11.6046 28.7083 11.6104L28.8586 11.6797V10.8955L27.4475 10.3021C27.4475 10.304 27.461 10.7568 28.0952 11.25Z" fill="#2C3F4D"/>
<path d="M31.4517 11.25C32.0899 10.7568 32.1014 10.3021 32.1014 10.3021L30.6903 10.8955V11.6797L30.8386 11.6104C30.8483 11.6046 31.0681 11.5546 31.4517 11.25Z" fill="#2C3F4D"/>
<path d="M33.9941 8.05678C33.9941 6.86801 31.991 5.79871 29.7796 5.79871H29.7777H29.772H29.7662C27.5549 5.79871 25.5518 6.86801 25.5518 8.05678L25.5962 8.34961L26.4791 13.4149L25.5924 13.9293L23.2981 15.2684H23.3059C23.3059 15.2684 22.7892 15.5323 22.55 15.6961C21.6769 16.3031 21.4918 17.1874 21.9987 17.5535C22.1241 16.8329 22.6947 16.0776 23.7628 16.0776C24.532 16.0776 25.1181 16.4745 25.5924 17.0699C25.7138 17.2201 25.8295 17.3801 25.9375 17.5535C26.0704 17.7711 26.2034 17.962 26.3365 18.1469H20.4276C20.8614 19.0197 21.2738 19.9446 21.2738 20.9483V34.0191C21.2738 37.1827 23.7088 38.6932 26.3423 38.6932C28.3781 38.6932 28.652 38.6007 29.7759 39.7182C30.8941 38.5988 31.1678 38.6932 33.2056 38.6932C35.841 38.6932 38.2721 37.1827 38.2721 34.0191V20.9483C38.2721 19.9446 38.6847 19.0197 39.1204 18.1469H33.2094C33.3405 17.9638 33.4736 17.7711 33.6065 17.5535C33.7164 17.3801 33.8301 17.2201 33.9497 17.0699C34.4278 16.4726 35.012 16.0776 35.7812 16.0776C36.8492 16.0776 37.418 16.831 37.5452 17.5535C38.0524 17.1874 37.8691 16.3031 36.9899 15.6961C36.7548 15.5323 36.238 15.2684 36.238 15.2684H36.2458L33.9516 13.9293L33.0687 13.4149L33.9516 8.34961L33.9941 8.05678ZM26.4212 8.64636L29.5252 9.69828V14.5709L27.2408 13.3668L26.4212 8.64636ZM27.0633 18.9965C27.5723 19.5032 28.0717 19.8173 28.5459 19.9907C28.4841 20.2354 28.4033 20.7403 28.6327 21.243C28.8196 21.6476 29.159 21.9599 29.6466 22.1679C29.7007 22.6689 30.0168 23.4222 30.8941 23.7556C30.5104 24.1428 30.1363 24.5069 29.984 24.6553L26.4271 24.5994C26.3461 24.5589 26.2092 24.4684 26.1476 24.3393C26.1399 24.322 26.1283 24.3123 26.1226 24.293L26.7027 24.3874C26.7164 24.3893 26.7278 24.3893 26.7394 24.3893C26.8513 24.3893 26.9496 24.3123 26.9689 24.1967C26.9881 24.0676 26.9014 23.95 26.7761 23.9308L26.0627 23.819L26.8551 21.085L26.1052 19.5071L24.9022 20.7788L24.8289 23.6225L24.0212 23.4954C23.8958 23.4703 23.7763 23.5629 23.7551 23.688C23.7358 23.8134 23.8206 23.9308 23.9478 23.954L24.2872 24.0059C24.1657 24.0754 24.0867 24.1292 24.077 24.1369L24.0075 24.1851L23.9883 24.27C23.7917 25.0676 24.237 25.8248 24.7172 26.1639L24.6997 26.264C24.6805 26.3875 24.7074 26.5068 24.7807 26.607C24.8501 26.7092 24.958 26.7708 25.0775 26.792C25.1027 26.7958 25.1295 26.7977 25.1529 26.7977C25.3609 26.7977 25.5423 26.6532 25.5943 26.4433C25.7735 26.4644 25.9375 26.4683 26.0492 26.4683H26.1437L30.8112 27.3102L30.8902 27.2583C31.2622 26.9981 32.6792 25.9655 33.1439 25.6243C33.2711 25.7343 33.4137 25.8345 33.5873 25.9172C33.4369 26.422 33.4272 27.1985 34.023 27.8113H22.1279V20.9503C22.1279 20.2856 21.9333 19.617 21.7038 19.0004H27.0633V18.9965ZM32.8315 25.2738C32.3592 25.6206 31.1447 26.5068 30.7051 26.8151L26.4637 26.0541C26.4734 26.0155 26.483 25.9789 26.4927 25.9404C26.5486 25.7207 26.6045 25.4201 26.6083 25.0676L30.173 25.1254L30.2404 25.056C30.2945 25.0021 31.4242 23.9115 32.0006 23.2834C32.1375 23.4549 32.309 23.6187 32.5327 23.7632C32.4556 24.1794 32.4884 24.7728 32.8315 25.2738ZM25.7312 24.5396C25.8314 24.7497 26.0125 24.8904 26.138 24.9693C26.134 25.1658 26.1147 25.4722 26.0627 25.7419C26.0512 25.8016 26.0358 25.8575 26.0184 25.9134C26.0088 25.9482 25.9991 25.977 25.9914 26.0001C25.8044 26.0001 25.4361 25.977 25.1354 25.8672C24.802 25.7438 24.3046 25.1331 24.4201 24.4607C24.5648 24.372 24.8983 24.1851 25.2107 24.1851C25.4516 24.1832 25.6155 24.2969 25.7312 24.5396ZM25.2897 23.6939L25.3609 20.9637L25.974 20.3144L26.3597 21.1198L25.6 23.7401L25.2897 23.6939ZM32.793 37.8474C32.5616 37.8474 32.3477 37.8512 32.1548 37.859L32.66 36.2887C32.7391 36.0709 32.3399 35.7916 32.176 35.5469C32.4247 35.703 33.0687 36.044 33.3791 36.1809C33.3463 36.2309 32.793 37.8474 32.793 37.8474ZM34.3777 36.0633L34.0481 37.7819C33.8379 37.8108 33.6143 37.8261 33.3849 37.8358L33.7319 36.1828C33.8359 35.6913 32.5155 35.5392 31.8638 34.5739C31.5456 34.9323 30.9461 35.0383 30.3447 35.0383C29.7952 35.0383 29.2458 34.9496 28.9121 34.8841C28.8273 34.8707 28.7463 34.861 28.6673 34.861C28.4745 34.861 28.299 34.9208 28.1776 35.125L28.0812 35.2868L26.2826 34.863L25.8353 35.6028C25.7716 35.7223 25.7677 35.8245 25.87 35.936L25.9914 36.0691C25.9085 36.3311 25.5345 36.7261 25.5345 36.7261L25.2666 36.3927C25.0544 36.1558 25.0892 35.7242 25.3109 35.3234L26.0242 34.1192L27.5473 34.3389L27.3101 33.7994C26.992 33.0865 27.476 32.1791 27.528 31.6569C27.5106 31.8149 27.3659 31.8496 27.1963 31.8496C27.0421 31.8496 26.8705 31.8206 26.7567 31.8206C26.7125 31.8206 26.6738 31.8245 26.6527 31.8399L26.2401 32.0904L25.9143 31.8033C25.8757 31.7474 25.8622 31.6183 25.9586 31.522L26.7125 30.6781L25.8219 29.6397L27.0692 30.2658L27.4488 29.8054C27.5531 29.9075 27.5086 30.1753 27.5086 30.1753C27.8981 30.1849 28.9892 30.788 29.0471 32.1945C29.0509 32.2367 29.0509 32.285 29.0509 32.3311C29.0509 32.3311 29.0607 32.3486 29.0799 32.3774C29.1571 32.4835 29.369 32.7551 29.6389 32.7801L31.3626 32.9497H31.3701C31.5592 32.9497 31.9351 32.7282 32.417 32.7282C32.6792 32.7282 32.9722 32.7956 33.2846 32.9921C33.2846 32.9921 33.4407 32.8688 33.6952 32.8553C33.7144 32.8533 33.7358 32.8533 33.7551 32.8533C34.5281 32.8533 34.8481 33.5509 35.2626 34.1308C35.575 34.572 35.9914 35.2271 35.9914 35.2271C35.8371 35.4101 35.6944 35.5103 35.4554 35.5103C35.39 35.5103 35.3147 35.5045 35.2337 35.4891C34.4047 35.3369 34.2853 33.6337 33.8129 33.4988C33.7878 33.4911 33.7609 33.4892 33.7378 33.4892C33.5854 33.4892 33.518 33.6241 33.518 33.6241C33.7337 34.2039 33.6085 34.4391 33.8399 34.8861C34.0133 35.2175 34.3217 35.4911 34.4491 35.6201C34.4491 35.624 34.4143 35.8745 34.3777 36.0633ZM25.122 34.4371L25.2009 34.6356C25.1489 34.809 24.5513 35.0556 24.5513 35.0556L24.4221 34.7742C24.2853 34.4737 24.3141 33.967 24.7306 33.6568L25.6984 33.0672L26.724 33.2849C26.7047 33.6105 26.8994 33.8534 26.8994 33.8534L25.8237 33.6472L25.1798 34.0923C25.0718 34.1674 25.0641 34.3081 25.122 34.4371ZM34.5397 37.6876L34.8347 36.1499C34.85 36.0594 34.8693 35.9535 34.8828 35.8648C34.9657 35.8996 35.0544 35.9284 35.1508 35.9458C35.2606 35.967 35.3628 35.9765 35.4554 35.9765C35.9066 35.9765 36.1688 35.7395 36.3442 35.5372L36.5718 35.2733L36.3866 34.9844C36.3693 34.9554 35.9606 34.3081 35.6444 33.8649C35.5826 33.7782 35.5228 33.6915 35.4631 33.5971C35.1045 33.0614 34.6554 32.3891 33.7551 32.3891L33.6741 32.391C33.5256 32.4006 33.3984 32.4295 33.2963 32.468C33.0128 32.3351 32.7217 32.2677 32.4189 32.2677C32.0469 32.2677 31.7326 32.3699 31.5244 32.4411C31.4647 32.4584 31.4107 32.4777 31.3683 32.4854L29.6852 32.3196C29.6641 32.3159 29.5945 32.2755 29.5117 32.1752V32.1675L29.8761 32.021C29.7739 30.8092 28.6094 30.0635 27.9598 29.8111C27.9309 29.6897 27.8731 29.5683 27.7709 29.4701L27.4085 29.1271L27.0903 29.5087L26.9342 29.7033L24.5783 28.736L26.111 30.6589L25.5055 31.5741C25.2838 31.8091 25.5288 32.0442 25.5288 32.0442L26.1533 32.4738L26.8012 32.233C26.8242 32.233 26.8435 32.2389 26.8648 32.2407C26.834 32.3389 26.7934 32.7243 26.7664 32.8322L25.6425 32.6106L24.4607 33.2773C23.8533 33.7224 23.7704 34.4603 23.9961 34.9651L24.1271 35.252L24.3141 35.6568L24.7267 35.4852C24.7325 35.4833 24.7383 35.4814 24.742 35.4776C24.5937 35.9515 24.6535 36.4023 24.9195 36.6991L25.1701 37.0151L25.5037 37.437L25.87 37.0439C25.9779 36.936 26.3269 36.545 26.4348 36.2097L26.5139 35.9534L26.3346 35.7569L26.3057 35.7223L26.5062 35.3908L27.9732 35.7357L28.3029 35.8109L28.4784 35.5218L28.5748 35.3638C28.5921 35.3311 28.5979 35.3253 28.6654 35.3253C28.7175 35.3253 28.7695 35.3311 28.8254 35.3427C29.3787 35.4467 29.8895 35.4988 30.3427 35.4988C30.7822 35.4988 31.0443 35.4814 31.3586 35.3774C31.3586 35.3774 32.1471 36.2713 32.1741 36.306L31.6922 37.7934L31.671 37.884C30.7571 37.9571 30.3119 38.1576 29.7739 38.6951C28.9931 37.9205 28.4397 37.8397 26.3405 37.8397C23.8283 37.8397 22.126 36.3677 22.126 34.0171V28.2698H37.418L37.422 34.0171C37.4237 35.9245 36.3037 37.2539 34.5397 37.6876ZM37.846 18.9965C37.6128 19.6131 37.418 20.2817 37.418 20.9464L37.4201 25.2353C36.5235 25.085 36.4174 24.1196 36.4135 24.0773L36.3962 23.8808L36.2035 23.8634C35.814 23.8268 35.5557 23.661 35.3378 23.4492C34.8983 23.0099 34.8963 22.297 34.8983 22.2912C34.8926 22.3278 34.4143 22.9963 34.9696 23.7266C35.2028 24.0349 35.5402 24.2237 35.9779 24.2989C36.0801 24.8345 36.4791 25.5897 37.4201 25.7053V27.8054H34.7749C33.5545 27.1273 34.0711 25.9326 34.0962 25.8826L34.2004 25.6552L33.9671 25.5666C32.6464 25.0772 33.009 23.7593 33.0282 23.7035L33.0821 23.5107L32.9028 23.426C31.8116 22.9212 31.9602 21.5591 31.9737 21.5032C31.6382 21.7748 31.5167 22.3297 31.748 22.8731C31.6228 23.0157 31.4551 23.189 31.2719 23.3778C30.1422 23.0909 30.1076 22.0523 30.1076 22.0042L30.1055 21.8442L29.9571 21.7864C29.5156 21.6226 29.2129 21.378 29.0644 21.0484C28.8968 20.6844 28.9564 20.3029 29.0028 20.1198C29.1319 20.1487 29.2611 20.17 29.3845 20.1796C29.5117 20.193 29.6428 20.2008 29.7739 20.2008H29.7816H29.7913C29.9224 20.2008 30.0516 20.193 30.1788 20.1796C30.8824 20.1102 31.671 19.8077 32.4923 18.9946H37.846V18.9965ZM33.7242 14.6614L34.769 15.2684H34.7845L35.0467 15.4206C34.4568 15.5844 34.0056 15.8791 33.6278 16.2664C33.6143 16.278 33.6008 16.2934 33.5873 16.3069C33.5006 16.3993 33.4137 16.4996 33.3329 16.6017C33.3174 16.621 33.302 16.6422 33.2846 16.6634C33.2036 16.7673 33.1286 16.8734 33.0551 16.9851C33.0437 17.0044 33.0301 17.0237 33.0166 17.0409C32.9298 17.17 32.847 17.3088 32.7641 17.4513C32.0199 18.7326 30.8323 19.4975 29.7759 19.4994C28.7214 19.4975 27.5338 18.7326 26.7895 17.4513C26.7085 17.3125 26.6277 17.1778 26.5408 17.0467C26.5234 17.0217 26.5081 16.9967 26.4927 16.9754C26.4194 16.8695 26.3461 16.7654 26.271 16.6673C26.2517 16.6403 26.2342 16.619 26.215 16.5959C26.134 16.4976 26.0512 16.3993 25.9683 16.3088C25.951 16.2954 25.9394 16.278 25.922 16.2626C25.5423 15.8753 25.093 15.5824 24.5011 15.4206L24.7672 15.2684H24.7788L25.8237 14.6614L26.8974 14.0469L29.7662 15.6075L29.772 15.6017L29.7796 15.6075L32.6483 14.0469L33.7242 14.6614ZM32.309 13.3686L30.0227 14.5728V9.69828L33.1246 8.64636L32.309 13.3686ZM29.7739 9.1627L26.3732 7.81983C26.6624 7.13586 27.9964 6.55389 29.7739 6.55199C31.5534 6.55389 32.8874 7.13586 33.1747 7.81983L29.7739 9.1627Z" fill="#2C3F4D"/>
<path d="M71.8876 29.5538V21.839H76.4156V19.0317H64.0627V21.839H68.5906V29.5538H71.8876ZM80.9222 25.1548V19.0317H77.7351V29.5538H80.5486L86.0435 23.4306V29.5538H89.2307V19.0317H86.4172L80.9222 25.1548ZM99.9534 25.6412V29.5538H103.141V19.0317H99.9534V22.8779H94.8315V19.0317H91.6444V29.5538H94.8315V25.6412H99.9534ZM112.016 29.5538C112.74 29.5538 113.4 29.4876 114.016 29.3107C115.665 28.8465 116.742 27.498 116.742 25.6632C116.742 23.917 115.819 22.7012 114.347 22.1485C113.641 21.8833 112.807 21.8611 112.016 21.8611H108.74V19.0317H105.554V29.5538H112.016ZM111.466 24.337C111.906 24.337 112.324 24.337 112.697 24.4696C113.225 24.6464 113.533 25.0885 113.533 25.6191C113.533 26.1717 113.225 26.6359 112.719 26.8569C112.368 27.0117 112.016 27.0117 111.466 27.0117H108.74V24.337H111.466ZM122.456 25.5749L126.259 29.5538H130.5L125.203 24.0716L130.303 19.0317H126.303L122.456 22.9885H121.577V19.0317H118.391V29.5538H121.577V25.5749H122.456ZM137.058 18.7444C132.772 18.7444 130.201 21.1758 130.201 24.3148C130.201 27.4539 132.772 29.8855 137.058 29.8855C141.323 29.8855 143.895 27.4539 143.895 24.3148C143.895 21.1758 141.323 18.7444 137.058 18.7444ZM137.058 27.3212C134.926 27.3212 133.565 26.0391 133.565 24.3148C133.565 22.5907 134.926 21.3306 137.058 21.3306C139.168 21.3306 140.554 22.5907 140.554 24.3148C140.554 26.0391 139.168 27.3212 137.058 27.3212ZM154.509 18.4348H151.322V19.4958C147.322 19.5842 144.925 21.2863 144.925 24.2927C144.925 27.299 147.322 28.8686 151.322 28.957V30.0181H154.509V28.957C158.531 28.8686 160.927 27.299 160.927 24.2927C160.927 21.2863 158.531 19.5842 154.509 19.4958V18.4348ZM151.322 26.7023C149.124 26.6138 148.156 25.7075 148.156 24.2927C148.156 22.8779 149.124 21.8611 151.322 21.7728V26.7023ZM154.509 21.7728C156.73 21.8611 157.675 22.8779 157.675 24.2927C157.675 25.7075 156.73 26.6138 154.509 26.7023V21.7728ZM171.53 18.4348H168.343V19.4958C164.343 19.5842 161.948 21.2863 161.948 24.2927C161.948 27.299 164.343 28.8686 168.343 28.957V30.0181H171.53V28.957C175.554 28.8686 177.949 27.299 177.949 24.2927C177.949 21.2863 175.554 19.5842 171.53 19.4958V18.4348ZM168.343 26.7023C166.145 26.6138 165.179 25.7075 165.179 24.2927C165.179 22.8779 166.145 21.8611 168.343 21.7728V26.7023ZM171.53 21.7728C173.75 21.8611 174.696 22.8779 174.696 24.2927C174.696 25.7075 173.75 26.6138 171.53 26.7023V21.7728Z" fill="#2C3F4D"/>
</g>
<defs>
<filter id="filter0_d_38_24" x="0" y="0" width="182" height="54" filterUnits="userSpaceOnUse" color-interpolation-filters="sRGB">
<feFlood flood-opacity="0" result="BackgroundImageFix"/>
<feColorMatrix in="SourceAlpha" type="matrix" values="0 0 0 0 0 0 0 0 0 0 0 0 0 0 0 0 0 0 127 0" result="hardAlpha"/>
<feOffset dy="4"/>
<feGaussianBlur stdDeviation="2"/>
<feComposite in2="hardAlpha" operator="out"/>
<feColorMatrix type="matrix" values="0 0 0 0 0 0 0 0 0 0 0 0 0 0 0 0 0 0 0.25 0"/>
<feBlend mode="normal" in2="BackgroundImageFix" result="effect1_dropShadow_38_24"/>
<feBlend mode="normal" in="SourceGraphic" in2="effect1_dropShadow_38_24" result="shape"/>
</filter>
</defs>
</svg>
